<svg width="80" height="80" viewBox="0 0 80 80" fill="none" xmlns="http://www.w3.org/2000/svg">
<path d="M80 25.714H0V8.57141H80V25.714ZM14.2861 11.4288C11.1303 11.4288 8.57137 13.9869 8.57129 17.1427C8.57129 20.2986 11.1302 22.8575 14.2861 22.8575C17.4419 22.8573 20 20.2985 20 17.1427C19.9999 13.987 17.4418 11.4291 14.2861 11.4288Z" fill="white"/>
<path d="M80 48.5712H0V31.4286H80V48.5712ZM14.2861 34.286C11.1303 34.286 8.57135 36.844 8.57129 39.9999C8.57129 43.1558 11.1302 45.7147 14.2861 45.7147C17.4419 45.7145 20 43.1557 20 39.9999C19.9999 36.8442 17.4418 34.2862 14.2861 34.286Z" fill="white"/>
<path d="M80 71.4283H0V54.2857H80V71.4283ZM14.2861 57.1431C11.1303 57.1431 8.57137 59.7011 8.57129 62.857C8.57129 66.0129 11.1302 68.5718 14.2861 68.5718C17.4419 68.5716 20 66.0128 20 62.857C19.9999 59.7013 17.4418 57.1434 14.2861 57.1431Z" fill="white"/>
</svg>
