<svg width="80" height="80" viewBox="0 0 80 80" fill="none" xmlns="http://www.w3.org/2000/svg">
<circle cx="28.9656" cy="45.5173" r="4.13793" fill="white"/>
<circle cx="51.0344" cy="45.5173" r="4.13793" fill="white"/>
<path d="M35.8622 71.7241H70.3449V37.2414C68.5058 28.046 60.6898 11.0345 40.0001 11.0345C19.0056 11.0345 11.4944 28.9655 9.65527 37.2413V63.4482" stroke="white" stroke-width="8.27586"/>
<path d="M5.51709 41.3793V63.4483" stroke="white" stroke-width="8.27586"/>
<path d="M74.4829 41.3793V63.4483" stroke="white" stroke-width="8.27586"/>
<path d="M40 19.3104C51.53 19.3104 61.1153 27.6324 63.0791 38.5975C62.7443 38.6117 62.4077 38.6209 62.0693 38.6209C50.5391 38.6209 40.9528 30.2983 38.9893 19.3328C39.3244 19.3186 39.6613 19.3104 40 19.3104Z" fill="white"/>
<path d="M35.8389 19.679C35.8531 20.0141 35.8623 20.351 35.8623 20.6897C35.8623 32.2199 27.5396 41.8052 16.5742 43.7688C16.56 43.434 16.5518 43.0974 16.5518 42.759C16.5518 31.229 24.8738 21.6428 35.8389 19.679Z" fill="white"/>
</svg>
