<svg width="28" height="32" viewBox="0 0 28 32" fill="none" xmlns="http://www.w3.org/2000/svg">
<path d="M14 0C16.6543 0.000215604 18.8978 1.75855 19.6299 4.17383H27.8262V32H0V4.17383H8.37012C9.1021 1.75854 11.3457 0.000190341 14 0ZM4.66504 16.8867L3.06543 18.0869L4.66504 19.2871L10.2305 23.4609L11.1309 22.2607L12.0303 21.0605L8.06543 18.0869L12.0303 15.1133L11.1309 13.9131L10.2305 12.7129L4.66504 16.8867ZM16.6953 13.9131L15.7959 15.1133L19.7607 18.0869L15.7959 21.0605L16.6953 22.2607L17.5957 23.4609L23.1611 19.2871L24.7607 18.0869L23.1611 16.8867L17.5957 12.7129L16.6953 13.9131ZM14 2.61426C12.8216 2.6144 11.7887 3.23841 11.2139 4.17383H16.7861C16.2112 3.23839 15.1784 2.61443 14 2.61426Z" fill="white"/>
</svg>
