<svg width="21" height="13" viewBox="0 0 21 13" fill="none" xmlns="http://www.w3.org/2000/svg">
<path d="M20.1553 12.4749H17.8565C16.9867 12.4749 16.7252 11.7706 15.1653 10.2108C13.804 8.89829 13.2289 8.73443 12.8838 8.73443C12.408 8.73443 12.2772 8.86521 12.2772 9.52224V11.5894C12.2772 12.1488 12.096 12.4765 10.6354 12.4765C9.2179 12.3813 7.8433 11.9506 6.62484 11.22C5.40637 10.4894 4.37891 9.47982 3.62707 8.27435C1.84216 6.05273 0.600218 3.44529 0 0.659391C0 0.314331 0.130776 0.00235898 0.787809 0.00235898H3.08506C3.67591 0.00235898 3.88862 0.265487 4.12024 0.8721C5.23578 4.15569 7.13912 7.0107 7.91117 7.0107C8.20739 7.0107 8.33659 6.87993 8.33659 6.14096V2.75969C8.2389 1.21716 7.41958 1.08638 7.41958 0.528615C7.43011 0.381497 7.49752 0.244266 7.60753 0.146022C7.71754 0.0477776 7.8615 -0.00375292 8.00886 0.00235898H11.6202C12.1133 0.00235898 12.2772 0.248155 12.2772 0.839012V5.402C12.2772 5.89517 12.4899 6.05903 12.638 6.05903C12.9342 6.05903 13.1627 5.89517 13.7047 5.35316C14.8689 3.93344 15.82 2.35173 16.5282 0.657816C16.6006 0.454347 16.7376 0.280146 16.9182 0.1618C17.0989 0.0434527 17.3133 -0.0125421 17.5287 0.00235898H19.8276C20.5161 0.00235898 20.6626 0.347419 20.5161 0.839012C19.6802 2.71152 18.646 4.489 17.4311 6.14096C17.1837 6.51911 17.0844 6.71606 17.4311 7.15881C17.6595 7.50387 18.4647 8.17666 19.0067 8.81636C19.7943 9.60203 20.4484 10.511 20.9431 11.5075C21.1401 12.1472 20.8108 12.4749 20.1553 12.4749Z" fill="white"/>
</svg>
