<svg width="20" height="18" viewBox="0 0 20 18" fill="none" xmlns="http://www.w3.org/2000/svg">
<path fill-rule="evenodd" clip-rule="evenodd" d="M16.9594 16.4193L16.9601 16.4176L16.9776 16.3737L20.0002 1.13485V1.08535C20.0002 0.705663 19.8599 0.374197 19.5546 0.175375C19.2874 0.00134488 18.9802 -0.011049 18.7648 0.00530008C18.537 0.0225908 18.3222 0.0794533 18.1735 0.126786C18.097 0.151137 18.033 0.1746 17.9872 0.192346C17.9642 0.201252 17.9456 0.20881 17.932 0.214441L17.9187 0.220042L1.06642 6.83095L1.06178 6.83261C1.05268 6.83593 1.04064 6.84041 1.0261 6.84607C0.997123 6.85736 0.957673 6.8735 0.911329 6.8945C0.820332 6.93574 0.694608 6.99939 0.567103 7.0867C0.350548 7.235 -0.0618082 7.58608 0.00782136 8.14268C0.0654954 8.60372 0.383297 8.89652 0.59755 9.04811C0.712402 9.12938 0.822278 9.18798 0.902739 9.22628C0.943508 9.24569 0.978138 9.26056 1.00393 9.27106C1.01686 9.27633 1.02767 9.28054 1.03603 9.28371L1.04674 9.28771L1.05359 9.29025L4.00201 10.2829C3.99206 10.4678 4.01041 10.6565 4.05946 10.8426L5.53636 16.445C5.71147 17.1093 6.31242 17.572 6.99939 17.5715C7.61516 17.5711 8.16128 17.1985 8.39329 16.6428L10.6991 14.1773L14.6592 17.2134L14.7155 17.238C15.0753 17.395 15.4115 17.4447 15.7188 17.4027C16.0257 17.3608 16.2696 17.2321 16.4528 17.0855C16.6331 16.9413 16.7566 16.7785 16.8343 16.656C16.8738 16.5937 16.9032 16.539 16.9236 16.4978C16.9339 16.4771 16.942 16.4596 16.948 16.446L16.9556 16.4284L16.9583 16.4219L16.9594 16.4193ZM5.52136 10.4572C5.48779 10.3298 5.54048 10.1954 5.65164 10.1248L15.6523 3.77399C15.6523 3.77399 16.2405 3.41688 16.2195 3.77399C16.2195 3.77399 16.3244 3.83705 16.0093 4.13109C15.7103 4.41036 8.88153 11.0032 8.19056 11.6704C8.15068 11.7089 8.12687 11.7531 8.11282 11.8067L6.99825 16.0596L5.52136 10.4572Z" fill="white"/>
</svg>
