<svg width="32" height="32" viewBox="0 0 32 32" fill="none" xmlns="http://www.w3.org/2000/svg">
<path d="M20.5 2.28613L22.7998 4.57129H29.6992L32 11.4287L29.6992 13.7139V19.4287L32 21.7139L29.6992 27.4287H22.7998L20.5 29.7139L19.3496 32H12.6504L11.5 29.7139L9.2002 27.4287H2.30078L0 21.7139L2.30078 19.4287V13.7139L0 11.4287L2.30078 4.57129H9.2002L11.5 2.28613L12.6504 0H19.3496L20.5 2.28613ZM15.8994 10.2676C12.7337 10.2676 10.167 12.8342 10.167 16C10.167 19.1658 12.7337 21.7324 15.8994 21.7324C19.0651 21.7323 21.6309 19.1657 21.6309 16C21.6309 12.8343 19.0651 10.2677 15.8994 10.2676Z" fill="white"/>
</svg>
