<svg width="90" height="30" viewBox="0 0 90 30" fill="none" xmlns="http://www.w3.org/2000/svg">
<path d="M12.7737 1.57895L2.62105 9.47369H12.7737V11.0526H0V9.47369L10.2158 1.57895H0V0H12.7737V1.57895Z" fill="white"/>
<path d="M26.1727 11.0526H14.7411V0H26.1727V1.57895H16.32V9.47369H26.1727V11.0526ZM24.8306 6.31579H17.1095V4.73684H24.8306V6.31579Z" fill="white"/>
<path d="M29.7041 11.0526H28.1251V0H28.9146C29.683 0 30.5146 0.147368 31.4093 0.442105C32.3146 0.736842 33.2199 1.15263 34.1251 1.68947C35.0304 2.22632 35.883 2.86842 36.683 3.61579C37.4935 4.35263 38.1883 5.17368 38.7672 6.07895V0H40.3462V11.0526H38.7672C38.7672 10.0842 38.5672 9.1579 38.1672 8.27368C37.7778 7.37895 37.2567 6.5579 36.6041 5.81053C35.9514 5.05263 35.2251 4.38421 34.4251 3.80526C33.6357 3.21579 32.8304 2.73684 32.0093 2.36842C31.1883 1.98947 30.4199 1.74737 29.7041 1.64211V11.0526Z" fill="white"/>
<path d="M13.4211 22.8947C13.4211 23.6211 13.2421 24.2842 12.8842 24.8842C12.5368 25.4737 12.0632 25.9474 11.4632 26.3053C10.8632 26.6632 10.2 26.8421 9.47368 26.8421H3.12632V25.2789H9.47368C9.91579 25.2789 10.3158 25.1737 10.6737 24.9632C11.0316 24.7421 11.3158 24.4526 11.5263 24.0947C11.7368 23.7263 11.8421 23.3263 11.8421 22.8947C11.8421 22.4526 11.7368 22.0526 11.5263 21.6947C11.3158 21.3368 11.0316 21.0526 10.6737 20.8421C10.3158 20.6316 9.91579 20.5263 9.47368 20.5263H2.24211V30H0.663158V18.9474H9.47368C10.2 18.9474 10.8632 19.1263 11.4632 19.4842C12.0632 19.8316 12.5368 20.3053 12.8842 20.9053C13.2421 21.5053 13.4211 22.1684 13.4211 22.8947Z" fill="white"/>
<path d="M16.7209 30H15.142V18.9474H16.7209V30Z" fill="white"/>
<path d="M32.1248 22.8947C32.1248 23.6211 31.9458 24.2842 31.588 24.8842C31.2406 25.4737 30.7669 25.9474 30.1669 26.3053C29.5669 26.6632 28.9037 26.8421 28.1774 26.8421H21.8301V25.2789H28.1774C28.6195 25.2789 29.0195 25.1737 29.3774 24.9632C29.7353 24.7421 30.0195 24.4526 30.2301 24.0947C30.4406 23.7263 30.5458 23.3263 30.5458 22.8947C30.5458 22.4526 30.4406 22.0526 30.2301 21.6947C30.0195 21.3368 29.7353 21.0526 29.3774 20.8421C29.0195 20.6316 28.6195 20.5263 28.1774 20.5263H20.9458V30H19.3669V18.9474H28.1774C28.9037 18.9474 29.5669 19.1263 30.1669 19.4842C30.7669 19.8316 31.2406 20.3053 31.588 20.9053C31.9458 21.5053 32.1248 22.1684 32.1248 22.8947Z" fill="white"/>
<path d="M45.2773 30H33.8457V18.9474H45.2773V20.5263H35.4247V28.4211H45.2773V30ZM43.9352 25.2632H36.2141V23.6842H43.9352V25.2632Z" fill="white"/>
<path d="M57.7929 30H47.2298V18.9474H48.8087V28.4211H57.7929V30Z" fill="white"/>
<path d="M60.8513 30H59.2723V18.9474H60.8513V30Z" fill="white"/>
<path d="M65.0762 30H63.4972V18.9474H64.2867C65.0551 18.9474 65.8867 19.0947 66.7815 19.3895C67.6867 19.6842 68.592 20.1 69.4972 20.6368C70.4025 21.1737 71.2551 21.8158 72.0551 22.5632C72.8657 23.3 73.5604 24.1211 74.1394 25.0263V18.9474H75.7183V30H74.1394C74.1394 29.0316 73.9394 28.1053 73.5394 27.2211C73.1499 26.3263 72.6288 25.5053 71.9762 24.7579C71.3236 24 70.5972 23.3316 69.7972 22.7526C69.0078 22.1632 68.2025 21.6842 67.3815 21.3158C66.5604 20.9368 65.792 20.6947 65.0762 20.5895V30Z" fill="white"/>
<path d="M89.8086 30H78.377V18.9474H89.8086V20.5263H79.9559V28.4211H89.8086V30ZM88.4665 25.2632H80.7454V23.6842H88.4665V25.2632Z" fill="white"/>
</svg>
